<?xml version="1.0" encoding="utf-8"?>
<!-- Generator: Adobe Illustrator 17.1.0, SVG Export Plug-In . SVG Version: 6.00 Build 0)  -->
<!DOCTYPE svg PUBLIC "-//W3C//DTD SVG 1.1//EN" "http://www.w3.org/Graphics/SVG/1.1/DTD/svg11.dtd">
<svg version="1.1" id="Группа_1" xmlns="http://www.w3.org/2000/svg" xmlns:xlink="http://www.w3.org/1999/xlink" x="0px"
	 y="0px" viewBox="0 0 456 99" enable-background="new 0 0 456 99" xml:space="preserve">
<path id="Фигура_1" fill="#FFFFFF" d="M1.5,27l4.3-1.1c0,1.1,0,2.3,0.1,3.4c3.6-2.4,8.7-3.6,15.3-3.6c7.1,0,12.3,2.2,15.8,6.6
	s5.2,10.6,5.2,18.6c0,7.1-1.7,12.9-5.1,17.6s-8.6,7-15.5,7c-1.1,0-5.7-0.4-13.7-1.1C7.9,79,8.2,86.2,8.6,96c-0.6,2-1.7,3-3.3,3
	C4,99,2.8,98.5,2,97.6c-1-0.9-1.7-2.1-2-3.4C0.2,88.9,0.4,78.5,0.6,63S1.1,35.5,1.5,27z M6.8,35.7l0.8,29.8c3.7,2,7.9,3,12.1,2.9
	c4.3,0.1,8.3-1.8,11.2-5c3-3.3,4.7-7.7,4.6-12.1c0-5.1-1.6-10-4.8-13.9c-3.2-4.1-7.2-6.2-11.9-6.2C14.8,31.1,10.8,32.7,6.8,35.7
	L6.8,35.7z M81.5,59.2L77.3,59c-1.3-3.6-3.6-5.4-6.7-5.4c-1.5,0-3,0.4-4.4,1c-1.3,0.5-2.6,1.2-3.8,2c-1,0.7-2.3,1.6-4,2.9
	c0,0.9,0,3.8,0,8.7s0,10.4,0.1,16.3c0.1,6,0.2,9.2,0.3,9.7C58.1,96,57,97,55.4,97c-1.2,0-2.4-0.5-3.3-1.4c-1-0.9-1.7-2.1-2-3.4
	c1.2-20.5,2.3-35.9,3.3-46.4l4.3,1l0.3,6.4c4.4-3.7,8.2-5.5,11.4-5.5c3.1-0.1,6.2,0.7,8.8,2.4c2.3,1.5,3.7,4.2,3.6,7
	C81.7,57.8,81.6,58.5,81.5,59.2z M87.6,46.5l4.4,1c0.5,5.2,1,13.4,1.3,24.6s0.6,18.1,0.8,20.8c-0.6,2-1.7,3-3.3,3
	c-1.2,0-2.4-0.5-3.3-1.4c-1-0.9-1.7-2.1-2-3.4c0.1-2.6,0.4-9.4,0.8-20.4S87.1,51.6,87.6,46.5L87.6,46.5z M109.2,57.3l0.4,37.9
	c-1.1,0.5-2.2,0.8-3.4,0.8c-1.2,0-2.3-0.2-3.4-0.5c0.2-4,0.3-11.9,0.4-23.7s0.3-20.5,0.8-26.2l4.3,1l0.3,5.4
	c2.9-3.4,7.2-5.3,11.6-5.4c1.8,0,3.6,0.1,5.3,0.5c1.5,0.4,2.8,1.2,3.9,2.3c1.3,1.4,2.3,3.1,2.8,4.9c0.8,2.9,1.4,5.8,1.7,8.7
	c0.5,3.8,0.9,8.2,1.1,13.3s0.4,11.5,0.4,19.2c-0.7,0.2-1.5,0.2-2.2,0.2c-1.8,0.1-3.6-0.2-5.3-0.9c-0.3-1.7-0.4-3.4-0.4-5.1
	c0-1.2,0-3.5,0.1-6.8s0.1-6,0.1-7.8c0-3.1-0.1-5.7-0.3-8c-0.2-2.3-0.6-4.6-1.2-6.8c-0.4-1.9-1.4-3.7-2.8-5.2
	c-1.2-1.2-2.9-1.9-4.6-1.8c-1.7,0-3.3,0.1-4.9,0.5c-0.9,0.2-1.8,0.6-2.5,1.1C110.6,55.7,109.9,56.5,109.2,57.3L109.2,57.3z
	 M175.2,48.2l-0.5,4.1c-2.3-0.4-4.6-0.5-6.9-0.6c-4-0.1-7.9,1.3-10.9,4c-2.8,2.5-4.8,5.8-5.9,9.4c-1.1,3.9-1.6,7.9-1.6,12
	c0,1.8,0.1,3.6,0.4,5.4c0.3,1.6,0.7,3.2,1.4,4.7c0.6,1.5,1.7,2.8,3.1,3.6c1.6,0.9,3.4,1.4,5.3,1.3c3.6-0.1,7.2-0.7,10.7-1.6
	c1-0.4,2.1-0.7,3.1-0.8c1.5,0,2.4,1.8,2.8,5.4c-5,1.7-10.3,2.6-15.5,2.7c-6.9,0-11.6-1.7-14.1-5.1c-2.4-3.4-3.7-8.9-3.7-16.6
	c0-3.9,0.3-7.8,0.9-11.7c0.6-3.3,1.7-6.4,3.2-9.4c1.5-2.8,3.8-5.2,6.6-6.6c3.3-1.6,7-2.4,10.6-2.3C169.1,46,172.7,46.8,175.2,48.2
	L175.2,48.2z M216.2,86.4l1,4.2c-4.1,1.4-8.2,2.5-12.4,3.4c-4,1-8.1,1.7-12.3,1.9c-2.6,0-5.2-0.9-7.1-2.7c-2.1-1.9-3.7-4.3-4.6-7
	c-1-2.7-1.7-5.5-2.2-8.4c-0.5-2.7-0.7-5.4-0.7-8.2c0-15.9,7.2-23.9,21.5-23.9c3.3,0,6.5,1.1,9.1,3.3c2.6,2.1,4,5.3,3.9,8.6
	c0,1.8-0.5,3.6-1.6,5.1c-1,1.4-2.3,2.6-3.8,3.5c-1.8,1-3.7,1.8-5.7,2.3c-2,0.6-4.1,1.1-6.1,1.5c-1.8,0.3-3.9,0.7-6.4,1.1
	s-4.2,0.7-5.1,0.9c0.1,1.9,0.2,3.5,0.3,4.9c0.2,1.5,0.5,3.1,1,4.5c0.4,1.4,1,2.8,1.9,4c0.9,1.1,2,2,3.3,2.6c1.5,0.7,3.2,1.1,5,1.1
	c2.8,0,5.6-0.2,8.4-0.6c3.3-0.4,6.2-0.8,8.8-1.3C214.7,86.6,216.1,86.4,216.2,86.4z M183.9,65.9c7.3-2,14.4-4.6,21.3-7.8
	c-0.3-1.6-0.9-3.2-1.8-4.6c-0.9-1-2.1-1.5-3.4-1.4c-3.9,0-7.6,1.4-10.5,4C186.3,58.5,184.4,62.1,183.9,65.9z M250.3,49.6l-1,3.8
	c-6.2-2.5-11-3.8-14.4-3.8c-3.1,0-5.2,0.5-6.4,1.4c-1.2,0.9-1.9,2.9-1.9,5.9c-0.1,2.3,0.9,4.5,2.6,6c1.8,1.7,4,2.9,6.3,3.8
	c2.5,0.9,5,1.9,7.5,3c2.5,1,4.7,2.6,6.4,4.6c1.8,2.1,2.7,4.8,2.6,7.6c0,4-1.6,7.9-4.5,10.7c-3.1,3.1-7.3,4.8-11.6,4.7
	c-3.4,0-6.8-0.7-9.8-2.2c-2.8-1.3-5.3-3.2-7.2-5.6l2.8-2.9c0.8,0.3,1.9,0.8,3.4,1.5s2.6,1.2,3.2,1.4c0.9,0.3,1.9,0.5,2.8,0.7
	c1.3,0.3,2.6,0.4,4,0.4c2.6,0.1,5.2-0.6,7.3-2c1.9-1.2,2.9-3.4,2.9-5.6c0-1.5-0.4-2.9-1.3-4c-1-1.2-2.2-2.1-3.5-2.7
	c-1.5-0.7-3.1-1.4-4.8-2c-1.7-0.6-3.5-1.4-5.2-2.1c-1.7-0.8-3.3-1.7-4.8-2.9c-1.5-1.2-2.7-2.8-3.5-4.5c-0.9-2.1-1.4-4.5-1.3-6.8
	c-0.1-3.5,1-6.9,3.1-9.6c2.1-2.6,5.4-4,8.7-3.9c1.7,0,3.3,0.3,5,0.7c1.8,0.4,3.3,0.9,4.4,1.2s2.7,1,4.8,1.9
	C248.8,49,250,49.5,250.3,49.6z M287.3,49.6l-1,3.8c-6.2-2.5-11-3.8-14.4-3.8c-3.1,0-5.2,0.5-6.4,1.4c-1.2,0.9-1.9,2.9-1.9,5.9
	c-0.1,2.3,0.9,4.5,2.6,6c1.9,1.7,4,2.9,6.3,3.8c2.5,0.9,5,1.9,7.5,3c2.5,1,4.7,2.6,6.4,4.6c1.8,2.1,2.7,4.8,2.6,7.6
	c0,4-1.6,7.9-4.5,10.7c-3.1,3.1-7.3,4.8-11.6,4.7c-3.4,0-6.8-0.7-9.8-2.2c-2.8-1.3-5.3-3.2-7.2-5.6l2.8-2.9c0.8,0.3,1.9,0.8,3.4,1.5
	c1.5,0.7,2.6,1.2,3.2,1.4c0.9,0.3,1.9,0.5,2.8,0.7c1.3,0.3,2.6,0.4,4,0.4c2.6,0.1,5.2-0.6,7.3-2c1.9-1.2,2.9-3.4,2.9-5.6
	c0-1.5-0.4-2.9-1.3-4c-1-1.2-2.2-2.1-3.5-2.7c-1.5-0.7-3.1-1.4-4.8-2c-1.7-0.6-3.5-1.4-5.2-2.1c-1.7-0.8-3.3-1.7-4.8-2.9
	c-1.5-1.2-2.7-2.8-3.5-4.5c-0.9-2.1-1.4-4.5-1.3-6.8c-0.1-3.5,1-6.9,3.1-9.6c2.1-2.6,5.4-4,8.7-3.9c1.7,0,3.3,0.3,5,0.7
	c1.8,0.4,3.3,0.9,4.4,1.2s2.7,1,4.8,1.9C285.7,49,287,49.5,287.3,49.6z M351.5,26.9l5.5-1.1c1.1,9,1.9,21.5,2.1,37.4
	c0.3,16,0.6,26.5,0.9,31.7c-0.6,2-1.7,3-3.3,3c-1.2,0-2.4-0.6-3.3-1.4c-1-0.9-1.7-2.1-2-3.4c0.1-2.3,0.1-6.1,0.1-11.5V62.7
	c-1.4,0.1-3.4,0.2-5.9,0.4c-2.5,0.2-4.8,0.4-6.9,0.5c-2.1,0.1-4,0.2-5.9,0.2c-1.7,0-2.9,0-3.6-0.1c0.1,3.9,0.4,9.4,0.7,16.5
	s0.5,12,0.7,14.7c-0.6,2-1.7,3-3.3,3c-1.2,0-2.4-0.6-3.2-1.4c-1-0.9-1.7-2.1-1.9-3.4c0.2-5.5,0.4-16.1,0.5-31.9s0.5-27.6,0.9-35.3
	l4.2,1c0,0.2,0,0.5,0,0.9s0,0.8,0,1c0.8,15.7,1.3,25.5,1.4,29.4c2.2-0.2,4.5-0.4,6.9-0.6s5.2-0.5,8.1-0.8c3-0.3,5.3-0.5,6.9-0.6
	c0.1-0.3,0.1-0.6,0.1-1c0-0.6,0-3.2,0-7.7S351.5,36,351.5,26.9L351.5,26.9z M371.4,54.4l-1.9-4.9c1.8-1.7,3.9-3.1,6.3-4
	c2.4-1,4.9-1.5,7.5-1.5c10.7,0,16.1,9.3,16.1,27.9c0,2.5-0.1,6.3-0.4,11.3c-0.3,5-0.4,8.7-0.4,11.2c-0.5,2-1.5,3-3,3
	c-1.3-0.1-2.4-0.7-3.1-1.7c-0.9-1.1-1.4-2.4-1.4-3.8c0-0.3,0-0.6,0.1-1c-3.9,3.8-8.1,5.7-12.6,5.7c-3.3,0-6.5-1.3-8.8-3.7
	c-2.5-2.3-3.8-5.6-3.8-8.9c0-5.9,2.3-11.3,6.9-16.1c4.6-4.8,9.8-7.2,15.7-7.2c0.3,0,0.5,0,0.8,0c0.3,0,0.6,0.1,0.9,0.1
	c0.3,0.1,0.5,0.1,0.8,0.1c-0.5-7.4-3.5-11.1-8.9-11.1C379,50,375.4,51.4,371.4,54.4z M391.3,84.3c0.1-4.5,0.2-7.8,0.2-10.1
	c0-1.9-0.1-4.6-0.2-8h-0.8c-4.6,0.1-9,1.9-12.3,5.1c-3.6,3-5.6,7.4-5.6,12c-0.1,1.8,0.6,3.6,1.9,4.9c1.2,1.2,2.8,1.9,4.5,1.8
	C381.8,89.9,385.9,88,391.3,84.3z M410.5,29.4c1.7,0,3.3,0.8,4.3,2.2c1.1,1.5,1.7,3.3,1.7,5.1c0.1,1.2-0.3,2.4-1,3.4
	c-0.6,0.8-1.7,1.3-2.7,1.3c-1.7,0.1-3.3-0.8-4.2-2.2c-1-1.5-1.6-3.3-1.5-5.2c-0.1-1.2,0.3-2.4,0.9-3.4
	C408.6,29.9,409.5,29.4,410.5,29.4z M409.2,46.5l4.4,1c0.5,5.2,1,13.4,1.3,24.6c0.4,11.2,0.6,18.1,0.8,20.8c-0.6,2-1.7,3-3.3,3
	c-1.2,0-2.4-0.5-3.3-1.4c-1-0.9-1.7-2.1-2-3.4c0.1-2.6,0.4-9.4,0.8-20.4C408.2,59.7,408.7,51.6,409.2,46.5z M455.8,59.2l-4.2-0.3
	c-1.3-3.6-3.6-5.4-6.7-5.4c-1.5,0-3,0.4-4.4,1c-1.3,0.5-2.6,1.2-3.8,2c-1,0.7-2.3,1.6-4,2.9c0,0.9,0,3.8,0,8.7s0,10.4,0.1,16.3
	c0.1,6,0.2,9.2,0.3,9.7c-0.6,1.9-1.7,2.9-3.4,2.9c-1.2,0-2.4-0.5-3.3-1.4c-1-0.9-1.7-2.1-2-3.4c1.2-20.5,2.3-35.9,3.3-46.4l4.3,1
	l0.3,6.4c4.4-3.7,8.2-5.5,11.4-5.5c3.1-0.1,6.2,0.7,8.8,2.4c2.3,1.5,3.7,4.2,3.6,7C456,57.8,456,58.5,455.8,59.2L455.8,59.2z"/>
<path id="Фигура_2" fill="#FFFFFF" d="M80.7,9.1L82,38.3l15.9,0.5l4.6-29l-7.9,18L91.8,2.2l-4.9,25.7L80.7,9.1z M94.1,2.2
	c-0.1,1.3-1.1,2.3-2.4,2.2c-1.2-0.1-2.2-1-2.2-2.2c0.1-1.3,1.1-2.3,2.4-2.2C93.1,0,94.1,1,94.1,2.2L94.1,2.2z M104.8,9.4
	c-0.1,1.3-1.1,2.3-2.4,2.2c-1.2-0.1-2.2-1-2.2-2.2c0.1-1.3,1.1-2.3,2.4-2.2C103.8,7.3,104.7,8.2,104.8,9.4L104.8,9.4z M83,8.7
	C83,10,81.9,11,80.6,10.9c-1.2-0.1-2.2-1-2.2-2.2c0.1-1.3,1.1-2.3,2.4-2.2C82,6.5,83,7.5,83,8.7z"/>
</svg>
